<?xml version="1.0" encoding="utf-8" standalone="no"?>
<!DOCTYPE svg PUBLIC "-//W3C//DTD SVG 1.1//EN"
  "http://www.w3.org/Graphics/SVG/1.1/DTD/svg11.dtd">
<svg xmlns:xlink="http://www.w3.org/1999/xlink" width="460.8pt" height="345.6pt" viewBox="0 0 460.8 345.6" xmlns="http://www.w3.org/2000/svg" version="1.1">
 <metadata>
  <rdf:RDF xmlns:dc="http://purl.org/dc/elements/1.1/" xmlns:cc="http://creativecommons.org/ns#" xmlns:rdf="http://www.w3.org/1999/02/22-rdf-syntax-ns#">
   <cc:Work>
    <dc:type rdf:resource="http://purl.org/dc/dcmitype/StillImage"/>
    <dc:date>2023-07-27T15:07:19.096019</dc:date>
    <dc:format>image/svg+xml</dc:format>
    <dc:creator>
     <cc:Agent>
      <dc:title>Matplotlib v3.5.3, https://matplotlib.org/</dc:title>
     </cc:Agent>
    </dc:creator>
   </cc:Work>
  </rdf:RDF>
 </metadata>
 <defs>
  <style type="text/css">*{stroke-linejoin: round; stroke-linecap: butt}</style>
 </defs>
 <g id="figure_1">
  <g id="patch_1">
   <path d="M 0 345.6 
L 460.8 345.6 
L 460.8 0 
L 0 0 
z
" style="fill: #ffffff"/>
  </g>
  <g id="axes_1">
   <g id="patch_2">
    <path d="M 57.6 307.584 
L 414.72 307.584 
L 414.72 41.472 
L 57.6 41.472 
z
" style="fill: #ffffff"/>
   </g>
   <g id="matplotlib.axis_1">
    <g id="xtick_1">
     <g id="line2d_1">
      <defs>
       <path id="mfd1c4cf3f9" d="M 0 0 
L 0 3.5 
" style="stroke: #000000; stroke-width: 0.8"/>
      </defs>
      <g>
       <use xlink:href="#mfd1c4cf3f9" x="73.832727" y="307.584" style="stroke: #000000; stroke-width: 0.8"/>
      </g>
     </g>
     <g id="text_1">
      <!-- 0 -->
      <g transform="translate(70.651477 322.182437)scale(0.1 -0.1)">
       <defs>
        <path id="DejaVuSans-30" d="M 2034 4250 
Q 1547 4250 1301 3770 
Q 1056 3291 1056 2328 
Q 1056 1369 1301 889 
Q 1547 409 2034 409 
Q 2525 409 2770 889 
Q 3016 1369 3016 2328 
Q 3016 3291 2770 3770 
Q 2525 4250 2034 4250 
z
M 2034 4750 
Q 2819 4750 3233 4129 
Q 3647 3509 3647 2328 
Q 3647 1150 3233 529 
Q 2819 -91 2034 -91 
Q 1250 -91 836 529 
Q 422 1150 422 2328 
Q 422 3509 836 4129 
Q 1250 4750 2034 4750 
z
" transform="scale(0.015625)"/>
       </defs>
       <use xlink:href="#DejaVuSans-30"/>
      </g>
     </g>
    </g>
    <g id="xtick_2">
     <g id="line2d_2">
      <g>
       <use xlink:href="#mfd1c4cf3f9" x="137.490481" y="307.584" style="stroke: #000000; stroke-width: 0.8"/>
      </g>
     </g>
     <g id="text_2">
      <!-- 50 -->
      <g transform="translate(131.127981 322.182437)scale(0.1 -0.1)">
       <defs>
        <path id="DejaVuSans-35" d="M 691 4666 
L 3169 4666 
L 3169 4134 
L 1269 4134 
L 1269 2991 
Q 1406 3038 1543 3061 
Q 1681 3084 1819 3084 
Q 2600 3084 3056 2656 
Q 3513 2228 3513 1497 
Q 3513 744 3044 326 
Q 2575 -91 1722 -91 
Q 1428 -91 1123 -41 
Q 819 9 494 109 
L 494 744 
Q 775 591 1075 516 
Q 1375 441 1709 441 
Q 2250 441 2565 725 
Q 2881 1009 2881 1497 
Q 2881 1984 2565 2268 
Q 2250 2553 1709 2553 
Q 1456 2553 1204 2497 
Q 953 2441 691 2322 
L 691 4666 
z
" transform="scale(0.015625)"/>
       </defs>
       <use xlink:href="#DejaVuSans-35"/>
       <use xlink:href="#DejaVuSans-30" x="63.623047"/>
      </g>
     </g>
    </g>
    <g id="xtick_3">
     <g id="line2d_3">
      <g>
       <use xlink:href="#mfd1c4cf3f9" x="201.148235" y="307.584" style="stroke: #000000; stroke-width: 0.8"/>
      </g>
     </g>
     <g id="text_3">
      <!-- 100 -->
      <g transform="translate(191.604485 322.182437)scale(0.1 -0.1)">
       <defs>
        <path id="DejaVuSans-31" d="M 794 531 
L 1825 531 
L 1825 4091 
L 703 3866 
L 703 4441 
L 1819 4666 
L 2450 4666 
L 2450 531 
L 3481 531 
L 3481 0 
L 794 0 
L 794 531 
z
" transform="scale(0.015625)"/>
       </defs>
       <use xlink:href="#DejaVuSans-31"/>
       <use xlink:href="#DejaVuSans-30" x="63.623047"/>
       <use xlink:href="#DejaVuSans-30" x="127.246094"/>
      </g>
     </g>
    </g>
    <g id="xtick_4">
     <g id="line2d_4">
      <g>
       <use xlink:href="#mfd1c4cf3f9" x="264.805989" y="307.584" style="stroke: #000000; stroke-width: 0.8"/>
      </g>
     </g>
     <g id="text_4">
      <!-- 150 -->
      <g transform="translate(255.262239 322.182437)scale(0.1 -0.1)">
       <use xlink:href="#DejaVuSans-31"/>
       <use xlink:href="#DejaVuSans-35" x="63.623047"/>
       <use xlink:href="#DejaVuSans-30" x="127.246094"/>
      </g>
     </g>
    </g>
    <g id="xtick_5">
     <g id="line2d_5">
      <g>
       <use xlink:href="#mfd1c4cf3f9" x="328.463743" y="307.584" style="stroke: #000000; stroke-width: 0.8"/>
      </g>
     </g>
     <g id="text_5">
      <!-- 200 -->
      <g transform="translate(318.919993 322.182437)scale(0.1 -0.1)">
       <defs>
        <path id="DejaVuSans-32" d="M 1228 531 
L 3431 531 
L 3431 0 
L 469 0 
L 469 531 
Q 828 903 1448 1529 
Q 2069 2156 2228 2338 
Q 2531 2678 2651 2914 
Q 2772 3150 2772 3378 
Q 2772 3750 2511 3984 
Q 2250 4219 1831 4219 
Q 1534 4219 1204 4116 
Q 875 4013 500 3803 
L 500 4441 
Q 881 4594 1212 4672 
Q 1544 4750 1819 4750 
Q 2544 4750 2975 4387 
Q 3406 4025 3406 3419 
Q 3406 3131 3298 2873 
Q 3191 2616 2906 2266 
Q 2828 2175 2409 1742 
Q 1991 1309 1228 531 
z
" transform="scale(0.015625)"/>
       </defs>
       <use xlink:href="#DejaVuSans-32"/>
       <use xlink:href="#DejaVuSans-30" x="63.623047"/>
       <use xlink:href="#DejaVuSans-30" x="127.246094"/>
      </g>
     </g>
    </g>
    <g id="xtick_6">
     <g id="line2d_6">
      <g>
       <use xlink:href="#mfd1c4cf3f9" x="392.121497" y="307.584" style="stroke: #000000; stroke-width: 0.8"/>
      </g>
     </g>
     <g id="text_6">
      <!-- 250 -->
      <g transform="translate(382.577747 322.182437)scale(0.1 -0.1)">
       <use xlink:href="#DejaVuSans-32"/>
       <use xlink:href="#DejaVuSans-35" x="63.623047"/>
       <use xlink:href="#DejaVuSans-30" x="127.246094"/>
      </g>
     </g>
    </g>
   </g>
   <g id="matplotlib.axis_2">
    <g id="ytick_1">
     <g id="line2d_7">
      <defs>
       <path id="m4730a9bfe4" d="M 0 0 
L -3.5 0 
" style="stroke: #000000; stroke-width: 0.8"/>
      </defs>
      <g>
       <use xlink:href="#m4730a9bfe4" x="57.6" y="295.488" style="stroke: #000000; stroke-width: 0.8"/>
      </g>
     </g>
     <g id="text_7">
      <!-- 0.000 -->
      <g transform="translate(21.971875 299.287219)scale(0.1 -0.1)">
       <defs>
        <path id="DejaVuSans-2e" d="M 684 794 
L 1344 794 
L 1344 0 
L 684 0 
L 684 794 
z
" transform="scale(0.015625)"/>
       </defs>
       <use xlink:href="#DejaVuSans-30"/>
       <use xlink:href="#DejaVuSans-2e" x="63.623047"/>
       <use xlink:href="#DejaVuSans-30" x="95.410156"/>
       <use xlink:href="#DejaVuSans-30" x="159.033203"/>
       <use xlink:href="#DejaVuSans-30" x="222.65625"/>
      </g>
     </g>
    </g>
    <g id="ytick_2">
     <g id="line2d_8">
      <g>
       <use xlink:href="#m4730a9bfe4" x="57.6" y="259.340434" style="stroke: #000000; stroke-width: 0.8"/>
      </g>
     </g>
     <g id="text_8">
      <!-- 0.002 -->
      <g transform="translate(21.971875 263.139652)scale(0.1 -0.1)">
       <use xlink:href="#DejaVuSans-30"/>
       <use xlink:href="#DejaVuSans-2e" x="63.623047"/>
       <use xlink:href="#DejaVuSans-30" x="95.410156"/>
       <use xlink:href="#DejaVuSans-30" x="159.033203"/>
       <use xlink:href="#DejaVuSans-32" x="222.65625"/>
      </g>
     </g>
    </g>
    <g id="ytick_3">
     <g id="line2d_9">
      <g>
       <use xlink:href="#m4730a9bfe4" x="57.6" y="223.192867" style="stroke: #000000; stroke-width: 0.8"/>
      </g>
     </g>
     <g id="text_9">
      <!-- 0.004 -->
      <g transform="translate(21.971875 226.992086)scale(0.1 -0.1)">
       <defs>
        <path id="DejaVuSans-34" d="M 2419 4116 
L 825 1625 
L 2419 1625 
L 2419 4116 
z
M 2253 4666 
L 3047 4666 
L 3047 1625 
L 3713 1625 
L 3713 1100 
L 3047 1100 
L 3047 0 
L 2419 0 
L 2419 1100 
L 313 1100 
L 313 1709 
L 2253 4666 
z
" transform="scale(0.015625)"/>
       </defs>
       <use xlink:href="#DejaVuSans-30"/>
       <use xlink:href="#DejaVuSans-2e" x="63.623047"/>
       <use xlink:href="#DejaVuSans-30" x="95.410156"/>
       <use xlink:href="#DejaVuSans-30" x="159.033203"/>
       <use xlink:href="#DejaVuSans-34" x="222.65625"/>
      </g>
     </g>
    </g>
    <g id="ytick_4">
     <g id="line2d_10">
      <g>
       <use xlink:href="#m4730a9bfe4" x="57.6" y="187.045301" style="stroke: #000000; stroke-width: 0.8"/>
      </g>
     </g>
     <g id="text_10">
      <!-- 0.006 -->
      <g transform="translate(21.971875 190.844519)scale(0.1 -0.1)">
       <defs>
        <path id="DejaVuSans-36" d="M 2113 2584 
Q 1688 2584 1439 2293 
Q 1191 2003 1191 1497 
Q 1191 994 1439 701 
Q 1688 409 2113 409 
Q 2538 409 2786 701 
Q 3034 994 3034 1497 
Q 3034 2003 2786 2293 
Q 2538 2584 2113 2584 
z
M 3366 4563 
L 3366 3988 
Q 3128 4100 2886 4159 
Q 2644 4219 2406 4219 
Q 1781 4219 1451 3797 
Q 1122 3375 1075 2522 
Q 1259 2794 1537 2939 
Q 1816 3084 2150 3084 
Q 2853 3084 3261 2657 
Q 3669 2231 3669 1497 
Q 3669 778 3244 343 
Q 2819 -91 2113 -91 
Q 1303 -91 875 529 
Q 447 1150 447 2328 
Q 447 3434 972 4092 
Q 1497 4750 2381 4750 
Q 2619 4750 2861 4703 
Q 3103 4656 3366 4563 
z
" transform="scale(0.015625)"/>
       </defs>
       <use xlink:href="#DejaVuSans-30"/>
       <use xlink:href="#DejaVuSans-2e" x="63.623047"/>
       <use xlink:href="#DejaVuSans-30" x="95.410156"/>
       <use xlink:href="#DejaVuSans-30" x="159.033203"/>
       <use xlink:href="#DejaVuSans-36" x="222.65625"/>
      </g>
     </g>
    </g>
    <g id="ytick_5">
     <g id="line2d_11">
      <g>
       <use xlink:href="#m4730a9bfe4" x="57.6" y="150.897734" style="stroke: #000000; stroke-width: 0.8"/>
      </g>
     </g>
     <g id="text_11">
      <!-- 0.008 -->
      <g transform="translate(21.971875 154.696953)scale(0.1 -0.1)">
       <defs>
        <path id="DejaVuSans-38" d="M 2034 2216 
Q 1584 2216 1326 1975 
Q 1069 1734 1069 1313 
Q 1069 891 1326 650 
Q 1584 409 2034 409 
Q 2484 409 2743 651 
Q 3003 894 3003 1313 
Q 3003 1734 2745 1975 
Q 2488 2216 2034 2216 
z
M 1403 2484 
Q 997 2584 770 2862 
Q 544 3141 544 3541 
Q 544 4100 942 4425 
Q 1341 4750 2034 4750 
Q 2731 4750 3128 4425 
Q 3525 4100 3525 3541 
Q 3525 3141 3298 2862 
Q 3072 2584 2669 2484 
Q 3125 2378 3379 2068 
Q 3634 1759 3634 1313 
Q 3634 634 3220 271 
Q 2806 -91 2034 -91 
Q 1263 -91 848 271 
Q 434 634 434 1313 
Q 434 1759 690 2068 
Q 947 2378 1403 2484 
z
M 1172 3481 
Q 1172 3119 1398 2916 
Q 1625 2713 2034 2713 
Q 2441 2713 2670 2916 
Q 2900 3119 2900 3481 
Q 2900 3844 2670 4047 
Q 2441 4250 2034 4250 
Q 1625 4250 1398 4047 
Q 1172 3844 1172 3481 
z
" transform="scale(0.015625)"/>
       </defs>
       <use xlink:href="#DejaVuSans-30"/>
       <use xlink:href="#DejaVuSans-2e" x="63.623047"/>
       <use xlink:href="#DejaVuSans-30" x="95.410156"/>
       <use xlink:href="#DejaVuSans-30" x="159.033203"/>
       <use xlink:href="#DejaVuSans-38" x="222.65625"/>
      </g>
     </g>
    </g>
    <g id="ytick_6">
     <g id="line2d_12">
      <g>
       <use xlink:href="#m4730a9bfe4" x="57.6" y="114.750168" style="stroke: #000000; stroke-width: 0.8"/>
      </g>
     </g>
     <g id="text_12">
      <!-- 0.010 -->
      <g transform="translate(21.971875 118.549386)scale(0.1 -0.1)">
       <use xlink:href="#DejaVuSans-30"/>
       <use xlink:href="#DejaVuSans-2e" x="63.623047"/>
       <use xlink:href="#DejaVuSans-30" x="95.410156"/>
       <use xlink:href="#DejaVuSans-31" x="159.033203"/>
       <use xlink:href="#DejaVuSans-30" x="222.65625"/>
      </g>
     </g>
    </g>
    <g id="ytick_7">
     <g id="line2d_13">
      <g>
       <use xlink:href="#m4730a9bfe4" x="57.6" y="78.602601" style="stroke: #000000; stroke-width: 0.8"/>
      </g>
     </g>
     <g id="text_13">
      <!-- 0.012 -->
      <g transform="translate(21.971875 82.40182)scale(0.1 -0.1)">
       <use xlink:href="#DejaVuSans-30"/>
       <use xlink:href="#DejaVuSans-2e" x="63.623047"/>
       <use xlink:href="#DejaVuSans-30" x="95.410156"/>
       <use xlink:href="#DejaVuSans-31" x="159.033203"/>
       <use xlink:href="#DejaVuSans-32" x="222.65625"/>
      </g>
     </g>
    </g>
    <g id="ytick_8">
     <g id="line2d_14">
      <g>
       <use xlink:href="#m4730a9bfe4" x="57.6" y="42.455035" style="stroke: #000000; stroke-width: 0.8"/>
      </g>
     </g>
     <g id="text_14">
      <!-- 0.014 -->
      <g transform="translate(21.971875 46.254253)scale(0.1 -0.1)">
       <use xlink:href="#DejaVuSans-30"/>
       <use xlink:href="#DejaVuSans-2e" x="63.623047"/>
       <use xlink:href="#DejaVuSans-30" x="95.410156"/>
       <use xlink:href="#DejaVuSans-31" x="159.033203"/>
       <use xlink:href="#DejaVuSans-34" x="222.65625"/>
      </g>
     </g>
    </g>
   </g>
   <g id="line2d_15">
    <path d="M 73.832727 295.488 
L 114.57369 295.40166 
L 118.393155 295.236415 
L 120.939465 295.001142 
L 123.485775 294.583325 
L 126.032086 293.871646 
L 127.305241 293.358231 
L 128.578396 292.707918 
L 129.851551 291.892465 
L 131.124706 290.880173 
L 132.397861 289.636138 
L 133.671016 288.122738 
L 134.944171 286.300405 
L 136.217326 284.128726 
L 137.490481 281.567896 
L 138.763636 278.580533 
L 140.036791 275.133825 
L 141.309947 271.201961 
L 142.583102 266.768742 
L 143.856257 261.830223 
L 146.402567 250.497297 
L 148.948877 237.499601 
L 157.860963 189.349473 
L 159.134118 183.645261 
L 160.407273 178.513278 
L 161.680428 173.987575 
L 162.953583 170.067261 
L 164.226738 166.714929 
L 165.499893 163.857683 
L 166.773048 161.390878 
L 171.865668 152.637871 
L 173.138824 149.995654 
L 174.411979 146.925944 
L 175.685134 143.357296 
L 176.958289 139.259253 
L 178.231444 134.645315 
L 180.777754 124.137642 
L 185.870374 101.652354 
L 187.143529 96.648179 
L 188.416684 92.182311 
L 189.68984 88.357336 
L 190.962995 85.240108 
L 192.23615 82.859088 
L 193.509305 81.204794 
L 194.78246 80.233107 
L 196.055615 79.870995 
L 197.32877 80.02398 
L 198.601925 80.584601 
L 199.87508 81.441072 
L 202.42139 83.620218 
L 204.967701 85.85533 
L 207.514011 87.732699 
L 210.060321 89.144473 
L 212.606631 90.202438 
L 221.518717 93.501028 
L 226.611337 95.647348 
L 229.157647 96.933637 
L 230.430802 97.735539 
L 231.703957 98.708956 
L 232.977112 99.910687 
L 234.250267 101.399191 
L 235.523422 103.230233 
L 236.796578 105.452362 
L 238.069733 108.102613 
L 239.342888 111.202848 
L 240.616043 114.757072 
L 241.889198 118.750005 
L 244.435508 127.895805 
L 246.981818 138.167218 
L 253.347594 164.524218 
L 255.893904 173.866728 
L 258.440214 182.088248 
L 260.986524 189.195973 
L 263.532834 195.330284 
L 266.079144 200.677405 
L 268.625455 205.41249 
L 271.171765 209.689266 
L 274.99123 215.593127 
L 278.810695 221.472689 
L 281.357005 225.741117 
L 283.903316 230.492954 
L 286.449626 235.801187 
L 288.995936 241.620831 
L 294.088556 254.096878 
L 297.908021 263.186279 
L 300.454332 268.624321 
L 303.000642 273.313183 
L 304.273797 275.3288 
L 305.546952 277.109345 
L 306.820107 278.649503 
L 308.093262 279.94934 
L 309.366417 281.014179 
L 310.639572 281.854261 
L 311.912727 282.484197 
L 313.185882 282.92224 
L 314.459037 283.189406 
L 315.732193 283.308515 
L 318.278503 283.197039 
L 320.824813 282.771099 
L 331.010053 280.647871 
L 333.556364 280.458446 
L 336.102674 280.535435 
L 338.648984 280.929948 
L 341.195294 281.673147 
L 343.741604 282.761588 
L 346.287914 284.146506 
L 350.10738 286.562275 
L 353.926845 288.979558 
L 356.473155 290.36485 
L 359.019465 291.448243 
L 361.565775 292.175126 
L 364.112086 292.5377 
L 366.658396 292.568674 
L 369.204706 292.330342 
L 373.024171 291.645289 
L 379.389947 290.348548 
L 381.936257 289.998634 
L 384.482567 289.827299 
L 387.028877 289.860336 
L 389.575187 290.098926 
L 392.121497 290.520429 
L 395.940963 291.39996 
L 398.487273 292.07046 
L 398.487273 292.07046 
" clip-path="url(#pa920103953)" style="fill: none; stroke: #1f77b4; stroke-width: 1.5; stroke-linecap: square"/>
   </g>
   <g id="line2d_16">
    <path d="M 73.832727 295.062703 
L 77.652193 294.651059 
L 80.198503 294.2229 
L 82.744813 293.630998 
L 85.291123 292.837378 
L 87.837433 291.802581 
L 90.383743 290.48557 
L 92.930053 288.841406 
L 95.476364 286.815853 
L 98.022674 284.336698 
L 100.568984 281.302651 
L 101.842139 279.535111 
L 103.115294 277.572052 
L 104.388449 275.388131 
L 105.661604 272.954857 
L 106.934759 270.240824 
L 108.207914 267.212149 
L 109.48107 263.833144 
L 110.754225 260.06723 
L 112.02738 255.878086 
L 113.300535 251.231009 
L 114.57369 246.094467 
L 115.846845 240.44179 
L 118.393155 227.516223 
L 120.939465 212.404552 
L 123.485775 195.240412 
L 126.032086 176.374148 
L 131.124706 136.027598 
L 133.671016 116.226008 
L 136.217326 97.93119 
L 138.763636 82.044437 
L 140.036791 75.245136 
L 141.309947 69.309447 
L 142.583102 64.291929 
L 143.856257 60.228556 
L 145.129412 57.136069 
L 146.402567 55.01201 
L 147.675722 53.835397 
L 148.948877 53.568 
L 150.222032 54.156136 
L 151.495187 55.532867 
L 152.768342 57.620488 
L 154.041497 60.333198 
L 155.314652 63.579806 
L 156.587807 67.266391 
L 159.134118 75.584948 
L 166.773048 102.176035 
L 169.319358 109.953854 
L 171.865668 116.753741 
L 174.411979 122.552848 
L 176.958289 127.47154 
L 179.504599 131.747168 
L 185.870374 141.766141 
L 188.416684 146.363475 
L 190.962995 151.652225 
L 193.509305 157.707367 
L 196.055615 164.464182 
L 199.87508 175.46531 
L 203.694545 186.582748 
L 206.240856 193.499655 
L 208.787166 199.682418 
L 211.333476 204.931413 
L 212.606631 207.170298 
L 213.879786 209.145625 
L 215.152941 210.859687 
L 216.426096 212.319768 
L 217.699251 213.537388 
L 218.972406 214.52748 
L 220.245561 215.307558 
L 221.518717 215.896921 
L 222.791872 216.31592 
L 224.065027 216.585327 
L 226.611337 216.757495 
L 229.157647 216.5707 
L 232.977112 215.920682 
L 239.342888 214.751025 
L 241.889198 214.477459 
L 244.435508 214.387333 
L 246.981818 214.507718 
L 249.528128 214.856259 
L 252.074439 215.446873 
L 254.620749 216.294665 
L 257.167059 217.418459 
L 259.713369 218.839928 
L 262.259679 220.579444 
L 264.805989 222.64994 
L 267.352299 225.050819 
L 269.89861 227.763929 
L 272.44492 230.752857 
L 276.264385 235.63675 
L 282.63016 244.308291 
L 287.722781 251.165869 
L 291.542246 256.011146 
L 295.361711 260.499288 
L 299.181176 264.608393 
L 303.000642 268.376038 
L 308.093262 272.997414 
L 313.185882 277.300117 
L 318.278503 281.305225 
L 322.097968 284.039939 
L 325.917433 286.461995 
L 329.736898 288.518532 
L 332.283209 289.678972 
L 336.102674 291.121256 
L 339.922139 292.250167 
L 343.741604 293.125393 
L 347.56107 293.801549 
L 352.65369 294.463523 
L 357.74631 294.910914 
L 364.112086 295.241674 
L 373.024171 295.432224 
L 389.575187 295.48672 
L 398.487273 295.487906 
L 398.487273 295.487906 
" clip-path="url(#pa920103953)" style="fill: none; stroke: #ff7f0e; stroke-width: 1.5; stroke-linecap: square"/>
   </g>
   <g id="patch_3">
    <path d="M 57.6 307.584 
L 57.6 41.472 
" style="fill: none; stroke: #000000; stroke-width: 0.8; stroke-linejoin: miter; stroke-linecap: square"/>
   </g>
   <g id="patch_4">
    <path d="M 414.72 307.584 
L 414.72 41.472 
" style="fill: none; stroke: #000000; stroke-width: 0.8; stroke-linejoin: miter; stroke-linecap: square"/>
   </g>
   <g id="patch_5">
    <path d="M 57.6 307.584 
L 414.72 307.584 
" style="fill: none; stroke: #000000; stroke-width: 0.8; stroke-linejoin: miter; stroke-linecap: square"/>
   </g>
   <g id="patch_6">
    <path d="M 57.6 41.472 
L 414.72 41.472 
" style="fill: none; stroke: #000000; stroke-width: 0.8; stroke-linejoin: miter; stroke-linecap: square"/>
   </g>
   <g id="legend_1">
    <g id="patch_7">
     <path d="M 302.90125 78.82825 
L 407.72 78.82825 
Q 409.72 78.82825 409.72 76.82825 
L 409.72 48.472 
Q 409.72 46.472 407.72 46.472 
L 302.90125 46.472 
Q 300.90125 46.472 300.90125 48.472 
L 300.90125 76.82825 
Q 300.90125 78.82825 302.90125 78.82825 
z
" style="fill: #ffffff; opacity: 0.8; stroke: #cccccc; stroke-linejoin: miter"/>
    </g>
    <g id="line2d_17">
     <path d="M 304.90125 54.570437 
L 314.90125 54.570437 
L 324.90125 54.570437 
" style="fill: none; stroke: #1f77b4; stroke-width: 1.5; stroke-linecap: square"/>
    </g>
    <g id="text_15">
     <!-- "160,172,110" -->
     <g transform="translate(332.90125 58.070437)scale(0.1 -0.1)">
      <defs>
       <path id="DejaVuSans-22" d="M 1147 4666 
L 1147 2931 
L 616 2931 
L 616 4666 
L 1147 4666 
z
M 2328 4666 
L 2328 2931 
L 1797 2931 
L 1797 4666 
L 2328 4666 
z
" transform="scale(0.015625)"/>
       <path id="DejaVuSans-2c" d="M 750 794 
L 1409 794 
L 1409 256 
L 897 -744 
L 494 -744 
L 750 256 
L 750 794 
z
" transform="scale(0.015625)"/>
       <path id="DejaVuSans-37" d="M 525 4666 
L 3525 4666 
L 3525 4397 
L 1831 0 
L 1172 0 
L 2766 4134 
L 525 4134 
L 525 4666 
z
" transform="scale(0.015625)"/>
      </defs>
      <use xlink:href="#DejaVuSans-22"/>
      <use xlink:href="#DejaVuSans-31" x="45.996094"/>
      <use xlink:href="#DejaVuSans-36" x="109.619141"/>
      <use xlink:href="#DejaVuSans-30" x="173.242188"/>
      <use xlink:href="#DejaVuSans-2c" x="236.865234"/>
      <use xlink:href="#DejaVuSans-31" x="268.652344"/>
      <use xlink:href="#DejaVuSans-37" x="332.275391"/>
      <use xlink:href="#DejaVuSans-32" x="395.898438"/>
      <use xlink:href="#DejaVuSans-2c" x="459.521484"/>
      <use xlink:href="#DejaVuSans-31" x="491.308594"/>
      <use xlink:href="#DejaVuSans-31" x="554.931641"/>
      <use xlink:href="#DejaVuSans-30" x="618.554688"/>
      <use xlink:href="#DejaVuSans-22" x="682.177734"/>
     </g>
    </g>
    <g id="line2d_18">
     <path d="M 304.90125 69.248562 
L 314.90125 69.248562 
L 324.90125 69.248562 
" style="fill: none; stroke: #ff7f0e; stroke-width: 1.5; stroke-linecap: square"/>
    </g>
    <g id="text_16">
     <!-- "208,221,175" -->
     <g transform="translate(332.90125 72.748562)scale(0.1 -0.1)">
      <use xlink:href="#DejaVuSans-22"/>
      <use xlink:href="#DejaVuSans-32" x="45.996094"/>
      <use xlink:href="#DejaVuSans-30" x="109.619141"/>
      <use xlink:href="#DejaVuSans-38" x="173.242188"/>
      <use xlink:href="#DejaVuSans-2c" x="236.865234"/>
      <use xlink:href="#DejaVuSans-32" x="268.652344"/>
      <use xlink:href="#DejaVuSans-32" x="332.275391"/>
      <use xlink:href="#DejaVuSans-31" x="395.898438"/>
      <use xlink:href="#DejaVuSans-2c" x="459.521484"/>
      <use xlink:href="#DejaVuSans-31" x="491.308594"/>
      <use xlink:href="#DejaVuSans-37" x="554.931641"/>
      <use xlink:href="#DejaVuSans-35" x="618.554688"/>
      <use xlink:href="#DejaVuSans-22" x="682.177734"/>
     </g>
    </g>
   </g>
  </g>
 </g>
 <defs>
  <clipPath id="pa920103953">
   <rect x="57.6" y="41.472" width="357.12" height="266.112"/>
  </clipPath>
 </defs>
</svg>
